<svg width="14" height="13" viewBox="0 0 14 13" fill="none" xmlns="http://www.w3.org/2000/svg">
<g clip-path="url(#clip0_50_24)">
<path d="M13.0094 3.0694L11.683 0.969867C11.5649 0.782367 11.3543 0.666626 11.1297 0.666626H2.87046C2.64593 0.666626 2.43528 0.782367 2.31722 0.969867L0.988519 3.0694C0.303334 4.15274 0.909816 5.65968 2.18991 5.83329C2.2825 5.84487 2.37741 5.85181 2.47 5.85181C3.07417 5.85181 3.6112 5.58792 3.97926 5.18051C4.34732 5.58792 4.88435 5.85181 5.48852 5.85181C6.09269 5.85181 6.62972 5.58792 6.99778 5.18051C7.36583 5.58792 7.90287 5.85181 8.50704 5.85181C9.11352 5.85181 9.64824 5.58792 10.0163 5.18051C10.3867 5.58792 10.9214 5.85181 11.5256 5.85181C11.6205 5.85181 11.7131 5.84487 11.8056 5.83329C13.0904 5.662 13.6992 4.15505 13.0117 3.0694H13.0094ZM11.9006 6.56709H11.8982C11.7756 6.58329 11.6506 6.59255 11.5232 6.59255C11.2362 6.59255 10.9607 6.54857 10.7038 6.46987V9.55551H3.29639V6.46755C3.03713 6.54857 2.75935 6.59255 2.47232 6.59255C2.345 6.59255 2.21769 6.58329 2.095 6.56709H2.09269C1.99778 6.5532 1.90519 6.537 1.81491 6.51385V9.55551V11.037C1.81491 11.8541 2.47926 12.5185 3.29639 12.5185H10.7038C11.5209 12.5185 12.1853 11.8541 12.1853 11.037V9.55551V6.51385C12.0927 6.537 12.0001 6.55551 11.9006 6.56709Z" fill="white"/>
</g>
<defs>
<clipPath id="clip0_50_24">
<rect width="13.3333" height="11.8519" fill="white" transform="translate(0.333374 0.666626)"/>
</clipPath>
</defs>
</svg>
