<svg width="26" height="26" viewBox="0 0 26 26" fill="none" xmlns="http://www.w3.org/2000/svg">
<g id="Location">
<g id="Iconly/Bold/Location">
<g id="Location_2">
<path id="Vector" d="M12.9929 2.16666C18.0441 2.16666 22.2083 6.19437 22.2083 11.1776C22.2083 13.6887 21.295 16.0199 19.7919 17.9959C18.1337 20.1755 16.0898 22.0745 13.7892 23.5651C13.2627 23.9096 12.7875 23.9356 12.2096 23.5651C9.89592 22.0745 7.85205 20.1755 6.208 17.9959C4.70377 16.0199 3.79163 13.6887 3.79163 11.1776C3.79163 6.19437 7.95583 2.16666 12.9929 2.16666ZM12.9929 8.42489C11.3226 8.42489 9.96037 9.80177 9.96037 11.4581C9.96037 13.1275 11.3226 14.4405 12.9929 14.4405C14.6642 14.4405 16.0395 13.1275 16.0395 11.4581C16.0395 9.80177 14.6642 8.42489 12.9929 8.42489Z" fill="url(#paint0_linear_1470_250882)"/>
</g>
</g>
</g>
<defs>
<linearGradient id="paint0_linear_1470_250882" x1="2.99994" y1="-3.50003" x2="20.5833" y2="24.375" gradientUnits="userSpaceOnUse">
<stop stop-color="#3E81C2"/>
<stop offset="1" stop-color="#49BDF2"/>
</linearGradient>
</defs>
</svg>
