<svg width="21" height="24" viewBox="0 0 21 24" fill="none" xmlns="http://www.w3.org/2000/svg">
<g clip-path="url(#clip0_4520_11755)">
<path opacity="0.4" d="M16.3802 6.1765C16.3802 7.72099 15.7684 9.20223 14.6794 10.2944C13.5904 11.3865 12.1134 12 10.5734 12C9.03333 12 7.55635 11.3865 6.46737 10.2944C5.37839 9.20223 4.7666 7.72099 4.7666 6.1765C4.7666 4.632 5.37839 3.15076 6.46737 2.05864C7.55635 0.966515 9.03333 0.352966 10.5734 0.352966C12.1134 0.352966 13.5904 0.966515 14.6794 2.05864C15.7684 3.15076 16.3802 4.632 16.3802 6.1765Z" fill="#08C5EB"/>
<path d="M13.1139 14.1838C13.2364 14.1838 13.3544 14.1884 13.4769 14.1929V16.8226C12.2248 17.1456 11.2993 18.2876 11.2993 19.6434V21.4632C11.2993 21.8636 11.626 22.1912 12.0252 22.1912H12.751C13.1502 22.1912 13.4769 21.8636 13.4769 21.4632C13.4769 21.0629 13.1502 20.7353 12.751 20.7353V19.6434C12.751 18.8381 13.3998 18.1875 14.2027 18.1875C15.0057 18.1875 15.6544 18.8381 15.6544 19.6434V20.7353C15.2552 20.7353 14.9286 21.0629 14.9286 21.4632C14.9286 21.8636 15.2552 22.1912 15.6544 22.1912H16.3803C16.7795 22.1912 17.1061 21.8636 17.1061 21.4632V19.6434C17.1061 18.2876 16.1807 17.1456 14.9286 16.8226V14.4022C18.2629 15.2166 20.7353 18.233 20.7353 21.8272V22.1912C20.7353 22.9965 20.0866 23.6471 19.2837 23.6471H1.86332C1.06035 23.6471 0.411621 22.9965 0.411621 22.1912V21.8272C0.411621 18.233 2.88404 15.2166 6.2184 14.4022V17.2002C5.17046 17.5142 4.40378 18.4878 4.40378 19.6434C4.40378 21.0492 5.54245 22.1912 6.94425 22.1912C8.34604 22.1912 9.48471 21.0492 9.48471 19.6434C9.48471 18.4878 8.71804 17.5142 7.67009 17.2002V14.1929C7.79258 14.1884 7.91053 14.1838 8.03302 14.1838H13.1139ZM6.94425 18.5515C7.23301 18.5515 7.50994 18.6665 7.71412 18.8713C7.91831 19.0761 8.03302 19.3538 8.03302 19.6434C8.03302 19.933 7.91831 20.2107 7.71412 20.4155C7.50994 20.6203 7.23301 20.7353 6.94425 20.7353C6.65549 20.7353 6.37855 20.6203 6.17437 20.4155C5.97019 20.2107 5.85548 19.933 5.85548 19.6434C5.85548 19.3538 5.97019 19.0761 6.17437 18.8713C6.37855 18.6665 6.65549 18.5515 6.94425 18.5515Z" fill="#08C5EB"/>
</g>
<defs>
<clipPath id="clip0_4520_11755">
<rect width="20.3237" height="23.2941" fill="white" transform="translate(0.411621 0.352966)"/>
</clipPath>
</defs>
</svg>
