<svg width="14" height="14" viewBox="0 0 14 14" fill="none" xmlns="http://www.w3.org/2000/svg">
<path d="M9.12897 1.16666C9.37662 1.16608 9.57244 1.35848 9.57302 1.61502L9.57359 2.0523C11.1805 2.17824 12.2419 3.27319 12.2437 4.95235L12.25 9.86738C12.2523 11.6981 11.1021 12.8246 9.25855 12.8275L4.75527 12.8333C2.9232 12.8356 1.75865 11.6824 1.75634 9.8464L1.75 4.98908C1.7477 3.29884 2.77173 2.2068 4.3786 2.0593L4.37803 1.62201C4.37745 1.36548 4.56751 1.17249 4.82093 1.17249C5.07434 1.17191 5.2644 1.36431 5.26498 1.62085L5.26555 2.02898L8.68664 2.02431L8.68607 1.61618C8.68549 1.35965 8.87555 1.16724 9.12897 1.16666ZM9.36395 9.44526H9.35819C9.09326 9.45168 8.88074 9.67381 8.8865 9.94201C8.88707 10.2102 9.10075 10.4312 9.36568 10.437C9.6358 10.4364 9.85465 10.2143 9.85408 9.94026C9.85408 9.66624 9.63464 9.44526 9.36395 9.44526ZM4.6182 9.44584C4.35326 9.45751 4.14592 9.67965 4.1465 9.94784C4.15859 10.216 4.37745 10.4259 4.64238 10.4137C4.90213 10.402 5.1089 10.1799 5.0968 9.9117C5.09104 9.64933 4.87737 9.44526 4.6182 9.44584ZM6.99107 9.44293C6.72614 9.45517 6.51938 9.67673 6.51938 9.94493C6.53147 10.2131 6.75033 10.4224 7.01526 10.4108C7.27444 10.3985 7.48177 10.177 7.46968 9.9082C7.46392 9.64641 7.25025 9.44235 6.99107 9.44293ZM4.61532 7.3469C4.35038 7.35856 4.14362 7.5807 4.14419 7.8489C4.15571 8.11709 4.37515 8.32699 4.64008 8.31475C4.89925 8.30308 5.10602 8.08095 5.09392 7.81275C5.08816 7.55038 4.87507 7.34631 4.61532 7.3469ZM6.98877 7.32649C6.72384 7.33815 6.5165 7.56029 6.51707 7.82849C6.52859 8.09669 6.74803 8.306 7.01296 8.29434C7.27213 8.28209 7.4789 8.06054 7.46738 7.79234C7.46104 7.52997 7.24794 7.32591 6.98877 7.32649ZM9.36165 7.3294C9.09671 7.33524 8.88938 7.55096 8.88995 7.81916V7.82557C8.89571 8.09377 9.11457 8.29725 9.38008 8.29142C9.63925 8.28501 9.84601 8.06287 9.84025 7.79467C9.82816 7.53813 9.62024 7.32882 9.36165 7.3294ZM8.6878 2.9222L5.26671 2.92686L5.26728 3.39854C5.26728 3.64983 5.0778 3.84807 4.82438 3.84807C4.57097 3.84865 4.38033 3.651 4.38033 3.39971L4.37976 2.95077C3.25667 3.06329 2.63523 3.7233 2.63695 4.98791L2.63753 5.16924L11.3573 5.15758V4.95351C11.3325 3.69997 10.7036 3.0423 9.57475 2.94435L9.57532 3.39329C9.57532 3.644 9.38008 3.84282 9.13242 3.84282C8.87901 3.8434 8.68837 3.64517 8.68837 3.39446L8.6878 2.9222Z" fill="black"/>
<path d="M9.12897 1.16666C9.37662 1.16608 9.57244 1.35848 9.57302 1.61502L9.57359 2.0523C11.1805 2.17824 12.2419 3.27319 12.2437 4.95235L12.25 9.86738C12.2523 11.6981 11.1021 12.8246 9.25855 12.8275L4.75527 12.8333C2.9232 12.8356 1.75865 11.6824 1.75634 9.8464L1.75 4.98908C1.7477 3.29884 2.77173 2.2068 4.3786 2.0593L4.37803 1.62201C4.37745 1.36548 4.56751 1.17249 4.82093 1.17249C5.07434 1.17191 5.2644 1.36431 5.26498 1.62085L5.26555 2.02898L8.68664 2.02431L8.68607 1.61618C8.68549 1.35965 8.87555 1.16724 9.12897 1.16666ZM9.36395 9.44526H9.35819C9.09326 9.45168 8.88074 9.67381 8.8865 9.94201C8.88707 10.2102 9.10075 10.4312 9.36568 10.437C9.6358 10.4364 9.85465 10.2143 9.85408 9.94026C9.85408 9.66624 9.63464 9.44526 9.36395 9.44526ZM4.6182 9.44584C4.35326 9.45751 4.14592 9.67965 4.1465 9.94784C4.15859 10.216 4.37745 10.4259 4.64238 10.4137C4.90213 10.402 5.1089 10.1799 5.0968 9.9117C5.09104 9.64933 4.87737 9.44526 4.6182 9.44584ZM6.99107 9.44293C6.72614 9.45517 6.51938 9.67673 6.51938 9.94493C6.53147 10.2131 6.75033 10.4224 7.01526 10.4108C7.27444 10.3985 7.48177 10.177 7.46968 9.9082C7.46392 9.64641 7.25025 9.44235 6.99107 9.44293ZM4.61532 7.3469C4.35038 7.35856 4.14362 7.5807 4.14419 7.8489C4.15571 8.11709 4.37515 8.32699 4.64008 8.31475C4.89925 8.30308 5.10602 8.08095 5.09392 7.81275C5.08816 7.55038 4.87507 7.34631 4.61532 7.3469ZM6.98877 7.32649C6.72384 7.33815 6.5165 7.56029 6.51707 7.82849C6.52859 8.09669 6.74803 8.306 7.01296 8.29434C7.27213 8.28209 7.4789 8.06054 7.46738 7.79234C7.46104 7.52997 7.24794 7.32591 6.98877 7.32649ZM9.36165 7.3294C9.09671 7.33524 8.88938 7.55096 8.88995 7.81916V7.82557C8.89571 8.09377 9.11457 8.29725 9.38008 8.29142C9.63925 8.28501 9.84601 8.06287 9.84025 7.79467C9.82816 7.53813 9.62024 7.32882 9.36165 7.3294ZM8.6878 2.9222L5.26671 2.92686L5.26728 3.39854C5.26728 3.64983 5.0778 3.84807 4.82438 3.84807C4.57097 3.84865 4.38033 3.651 4.38033 3.39971L4.37976 2.95077C3.25667 3.06329 2.63523 3.7233 2.63695 4.98791L2.63753 5.16924L11.3573 5.15758V4.95351C11.3325 3.69997 10.7036 3.0423 9.57475 2.94435L9.57532 3.39329C9.57532 3.644 9.38008 3.84282 9.13242 3.84282C8.87901 3.8434 8.68837 3.64517 8.68837 3.39446L8.6878 2.9222Z" fill="#484848"/>
</svg>
