<svg width="13" height="13" viewBox="0 0 13 13" fill="none" xmlns="http://www.w3.org/2000/svg">
<path fill-rule="evenodd" clip-rule="evenodd" d="M2.17427 2.16814C4.54615 -0.200612 8.40239 -0.175612 10.7886 2.21126C13.1761 4.59876 13.2011 8.45689 10.8286 10.8288C8.45677 13.2006 4.59865 13.1763 2.21115 10.7888C1.53958 10.12 1.03217 9.30462 0.728755 8.40673C0.425335 7.50883 0.334163 6.55283 0.462395 5.61376C0.47922 5.49052 0.544314 5.37901 0.643356 5.30376C0.742399 5.22851 0.867278 5.19569 0.99052 5.21251C1.11376 5.22934 1.22527 5.29443 1.30052 5.39347C1.37577 5.49252 1.40859 5.6174 1.39177 5.74064C1.28292 6.53646 1.36009 7.34667 1.61721 8.10763C1.87434 8.86859 2.30441 9.55957 2.87365 10.1263C4.90177 12.1538 8.16614 12.1656 10.1661 10.1663C12.1655 8.16626 12.1536 4.90189 10.1261 2.87376C8.09927 0.847513 4.83677 0.834389 2.83677 2.83126L3.30427 2.83314C3.36583 2.83343 3.42673 2.84583 3.48349 2.86966C3.54025 2.89348 3.59176 2.92825 3.63509 2.97198C3.67841 3.01571 3.7127 3.06755 3.73599 3.12453C3.75928 3.18151 3.77112 3.24252 3.77083 3.30408C3.77055 3.36563 3.75814 3.42653 3.73431 3.48329C3.71049 3.54005 3.67572 3.59157 3.63199 3.63489C3.58826 3.67822 3.53643 3.7125 3.47944 3.73579C3.42246 3.75909 3.36145 3.77093 3.2999 3.77064L1.70865 3.76314C1.58508 3.76248 1.46678 3.71306 1.37946 3.62563C1.29215 3.5382 1.24289 3.41983 1.2424 3.29626L1.23427 1.70626C1.23394 1.64471 1.24574 1.58369 1.269 1.52669C1.29225 1.46969 1.3265 1.41783 1.3698 1.37407C1.41309 1.33032 1.46458 1.29551 1.52133 1.27165C1.57807 1.24779 1.63896 1.23534 1.70052 1.23501C1.76208 1.23469 1.8231 1.24648 1.88009 1.26974C1.93709 1.29299 1.98895 1.32724 2.03271 1.37054C2.07647 1.41383 2.11127 1.46532 2.13513 1.52207C2.15899 1.57882 2.17144 1.63971 2.17177 1.70126L2.17427 2.16814ZM6.49927 3.53064C6.62359 3.53064 6.74282 3.58002 6.83073 3.66793C6.91863 3.75584 6.96802 3.87507 6.96802 3.99939V6.30564L8.39365 7.73064C8.43844 7.77386 8.47417 7.82557 8.49876 7.88274C8.52336 7.93992 8.53632 8.00142 8.53689 8.06366C8.53746 8.1259 8.52563 8.18763 8.50208 8.24525C8.47854 8.30287 8.44376 8.35522 8.39977 8.39926C8.35578 8.44329 8.30346 8.47812 8.24586 8.50172C8.18826 8.52531 8.12655 8.5372 8.06431 8.53669C8.00206 8.53618 7.94055 8.52328 7.88335 8.49874C7.82615 8.4742 7.77441 8.43851 7.73115 8.39376L6.03115 6.69376V4.00001C6.03115 3.87569 6.08053 3.75646 6.16844 3.66856C6.25635 3.58065 6.37558 3.53126 6.4999 3.53126" fill="black"/>
</svg>
