<svg width="14" height="12" viewBox="0 0 14 12" fill="none" xmlns="http://www.w3.org/2000/svg">
<path d="M1.55556 0.75C0.697569 0.75 0 1.42266 0 2.25V3H14V2.25C14 1.42266 13.3024 0.75 12.4444 0.75H1.55556ZM14 5.25H0V9.75C0 10.5773 0.697569 11.25 1.55556 11.25H12.4444C13.3024 11.25 14 10.5773 14 9.75V5.25ZM2.72222 8.25H4.27778C4.49167 8.25 4.66667 8.41875 4.66667 8.625C4.66667 8.83125 4.49167 9 4.27778 9H2.72222C2.50833 9 2.33333 8.83125 2.33333 8.625C2.33333 8.41875 2.50833 8.25 2.72222 8.25ZM5.44444 8.625C5.44444 8.41875 5.61944 8.25 5.83333 8.25H8.94444C9.15833 8.25 9.33333 8.41875 9.33333 8.625C9.33333 8.83125 9.15833 9 8.94444 9H5.83333C5.61944 9 5.44444 8.83125 5.44444 8.625Z" fill="black"/>
<path d="M1.55556 0.75C0.697569 0.75 0 1.42266 0 2.25V3H14V2.25C14 1.42266 13.3024 0.75 12.4444 0.75H1.55556ZM14 5.25H0V9.75C0 10.5773 0.697569 11.25 1.55556 11.25H12.4444C13.3024 11.25 14 10.5773 14 9.75V5.25ZM2.72222 8.25H4.27778C4.49167 8.25 4.66667 8.41875 4.66667 8.625C4.66667 8.83125 4.49167 9 4.27778 9H2.72222C2.50833 9 2.33333 8.83125 2.33333 8.625C2.33333 8.41875 2.50833 8.25 2.72222 8.25ZM5.44444 8.625C5.44444 8.41875 5.61944 8.25 5.83333 8.25H8.94444C9.15833 8.25 9.33333 8.41875 9.33333 8.625C9.33333 8.83125 9.15833 9 8.94444 9H5.83333C5.61944 9 5.44444 8.83125 5.44444 8.625Z" fill="#8C8C8C"/>
</svg>
