<svg width="32" height="36" viewBox="0 0 32 36" fill="none" xmlns="http://www.w3.org/2000/svg">
<circle cx="16" cy="19.84" r="16" fill="#08C5EB"/>
<mask id="mask0_4541_4515" style="mask-type:alpha" maskUnits="userSpaceOnUse" x="0" y="3" width="32" height="33">
<circle cx="16" cy="19.84" r="16" fill="#45CE74"/>
</mask>
<g mask="url(#mask0_4541_4515)">
<path d="M29.4401 37.12C29.0067 37.2343 28.5762 37.1193 28.1601 37.12C26.3995 37.12 24.6422 37.1166 22.8815 37.12C19.4178 37.1275 16.2007 37.1193 12.7363 37.12C9.89572 37.12 6.68074 37.139 3.84012 37.12C1.48052 37.1045 1.15879 32.1413 1.30685 29.9526C1.32829 29.6328 1.36312 29.3136 1.36044 28.9925C1.3303 26.3615 1.50918 24.2228 3.42593 22.2586C4.17293 21.4932 5.02445 20.8427 5.94765 20.295C6.87621 19.7439 7.80746 19.1996 8.84991 18.8886C8.83249 19.0157 8.76148 19.1137 8.68912 19.2152C7.94815 20.2558 7.29494 21.3464 6.80252 22.5324C6.41461 23.4669 6.15467 24.4372 5.97378 25.4304C5.92688 25.6881 5.84984 25.8524 5.54836 25.9349C4.88175 26.1181 4.48915 26.9248 4.69215 27.5766C4.93668 28.3616 5.62674 28.7673 6.36906 28.5645C6.95393 28.4049 7.26479 27.9836 7.36193 27.4177C7.46377 26.8267 7.18775 26.3717 6.71208 26.043C6.5821 25.9531 6.50037 25.895 6.53387 25.7043C6.92646 23.4831 7.75185 21.4533 9.09981 19.6432C9.36377 19.2889 9.66056 18.9535 9.84748 18.5444V18.5471C9.86825 18.5262 9.89036 18.5052 9.9118 18.4836L10.1704 18.4781C10.496 18.898 10.7224 19.3801 11.0012 19.8298C11.0588 19.9745 11.1117 20.1219 11.1747 20.2646C11.6939 21.4438 12.2131 22.6237 12.7363 23.8016C13.4143 25.3263 14.0964 26.849 14.7764 28.3731C15.1703 29.2792 15.5649 30.1852 15.999 31.1832C16.4365 30.1683 16.8298 29.2562 17.2231 28.3433C17.2525 28.296 17.2887 28.2521 17.3108 28.2014C18.4987 25.5183 19.6852 22.8347 20.8717 20.1516C20.9172 20.0489 20.9661 19.9474 20.9433 19.8291C20.9795 19.8061 21.0351 19.7913 21.0479 19.7588C21.2381 19.2929 21.5275 18.8879 21.8123 18.4795C22.4092 19.2165 22.7991 20.0752 23.2158 20.9177C23.2768 21.0401 23.2942 21.1382 23.1629 21.2382C22.0153 22.1166 21.6542 23.3695 21.6213 24.7333C21.5965 25.7719 21.8243 26.7801 22.2786 27.7247C21.9563 28.2054 22.1044 28.722 22.5874 28.8004C22.911 28.8532 23.1951 28.6787 23.2862 28.3704C23.39 28.0195 23.2373 27.7618 22.8139 27.5739C22.7911 27.511 22.771 27.4468 22.7449 27.3852C22.1205 25.9078 21.9597 24.4081 22.5499 22.8786C23.0249 21.6493 24.2054 21.2788 25.2867 22.0172C25.8448 22.3985 26.2065 22.9442 26.5 23.546C26.9991 24.5697 27.1438 25.657 27.0909 26.7821C27.0179 26.8484 26.9328 26.9058 26.8731 26.9836C26.7177 27.1864 26.6956 27.4163 26.8102 27.6428C26.9241 27.8694 27.1184 27.9938 27.3743 27.983C27.6282 27.9728 27.8198 27.8416 27.9149 27.605C28.0382 27.2967 27.9377 27.0397 27.6918 26.8328C27.6677 26.3534 27.7012 25.8747 27.6322 25.3926C27.4815 24.3337 27.1679 23.3465 26.5569 22.4634C26.0732 21.7643 25.481 21.1233 24.6341 21.0286C23.997 20.9576 23.7726 20.6459 23.5629 20.1503C23.3686 19.6898 23.0591 19.2848 22.8815 18.8129C23.0658 18.8014 23.2279 18.8778 23.394 18.942C24.0901 19.2131 24.7641 19.5343 25.4146 19.8988C26.9984 20.7879 28.4489 21.8488 29.5329 23.3458C31.1863 25.6306 30.6309 29.0817 30.6289 31.7404C30.6289 32.5727 30.1767 35.6703 29.5329 35.84L29.4401 37.12Z" fill="#E5E5E4"/>
</g>
<path d="M9.22883 9.70157C9.0446 8.29988 8.98564 6.89685 9.37891 5.52356C10.2418 2.51194 12.249 0.734312 15.2578 0.0696446C15.3107 0.0581499 15.3703 0.0662638 15.3945 0H16.664C16.7002 0.104129 16.794 0.0642354 16.863 0.0764063C18.3543 0.340109 19.5763 1.09268 20.6181 2.17589C20.6938 2.25432 20.7515 2.3456 20.8741 2.37671C22.1858 2.70465 22.7975 3.67291 23.0722 4.90555C23.3965 6.36065 23.2048 7.80764 22.9161 9.24583C22.89 9.37769 22.8652 9.50954 22.8397 9.64207C22.7386 10.0207 22.6448 10.4014 22.5349 10.7773C22.4304 11.1357 22.3527 11.5049 22.153 11.9113C22.1564 10.3399 21.9983 8.87259 21.546 7.44724C21.2687 6.57229 20.8787 5.75887 20.2202 5.10367C20.1438 5.02726 20.0848 4.89609 19.9261 5.02253C19.374 5.46068 18.7195 5.68179 18.0582 5.88328C16.53 6.34983 14.9556 6.56621 13.3759 6.74336C11.3881 6.96649 10.1031 8.1802 9.80433 10.1499C9.7246 10.6759 9.75274 11.2074 9.76212 11.7395C9.49682 11.0803 9.37221 10.3885 9.22883 9.70224V9.70157Z" fill="#535352"/>
<path d="M10.1699 18.4781C10.2168 17.9988 10.5672 17.6701 10.7722 17.2705C11.0201 16.7871 11.3176 16.3286 11.5936 15.8601C11.6552 15.9466 11.7175 16.0331 11.7792 16.1197C11.8033 16.144 11.8274 16.1677 11.8515 16.192L11.8475 16.1893C11.8321 16.3604 11.9386 16.4869 12.0123 16.6214C12.9831 18.3848 14.2553 19.9028 15.7132 21.2734C15.9409 21.4877 16.0769 21.4607 16.292 21.2619C17.3954 20.2416 18.3776 19.1144 19.2177 17.8655C19.5453 17.378 19.9111 16.9061 20.0786 16.3246L20.0746 16.3266C20.0994 16.3023 20.1242 16.2786 20.1483 16.2543C20.2314 16.1224 20.3144 15.9912 20.3982 15.8594C20.8919 16.7086 21.3857 17.5586 21.8795 18.4078C21.8574 18.4315 21.8352 18.4558 21.8131 18.4795C21.5284 18.8872 21.239 19.2929 21.0487 19.7588C21.0353 19.7913 20.9797 19.8061 20.9442 19.8291C20.8471 19.871 20.7935 19.9562 20.7372 20.0401C20.4498 20.4661 20.1603 20.89 19.8716 21.3146C19.4187 21.9786 18.9625 22.6406 18.5143 23.308C18.391 23.4912 18.3032 23.5243 18.1016 23.3736C17.855 23.1883 17.7076 22.8779 17.384 22.7961C16.976 22.4317 16.5633 22.0719 16.1634 21.6987C16.0374 21.5817 15.9597 21.5811 15.8331 21.6987C15.4331 22.0719 15.0204 22.4317 14.6124 22.7961C14.3431 22.8833 14.1937 23.1214 13.9954 23.2972C13.6859 23.5703 13.6691 23.5703 13.4454 23.2437C12.7198 22.1828 11.9936 21.1226 11.2687 20.061C11.199 19.9589 11.144 19.8447 11.002 19.8311C10.7233 19.3815 10.4969 18.8994 10.1713 18.4795L10.1699 18.4781Z" fill="#08C5EB"/>
<path d="M17.2231 28.3433C16.8298 29.2562 16.4365 30.1683 15.999 31.1832C15.5649 30.1852 15.1703 29.2791 14.7764 28.3731C14.8769 27.5495 14.9727 26.7253 15.0805 25.9031C15.1777 25.1593 15.2882 24.4169 15.3927 23.6738C15.7954 23.6738 16.1973 23.6738 16.6 23.6738C16.6174 23.738 16.6429 23.8016 16.6509 23.8672C16.8425 25.3588 17.0328 26.8511 17.2231 28.3433Z" fill="#676868"/>
<path d="M21.8129 18.4795C21.835 18.4558 21.8571 18.4322 21.8792 18.4078C22.253 18.4443 22.6282 18.4768 22.8821 18.8142C23.059 19.2862 23.3692 19.6912 23.5635 20.1517C23.7732 20.6473 23.9976 20.959 24.6348 21.03C25.4816 21.1247 26.0738 21.7657 26.5575 22.4648C27.1679 23.3479 27.4821 24.3351 27.6328 25.3939C27.7018 25.876 27.6683 26.3548 27.6924 26.8342C27.4995 26.7321 27.2985 26.7179 27.0915 26.7835C27.1444 25.6583 27.0004 24.5711 26.5006 23.5473C26.2071 22.9456 25.846 22.3999 25.2873 22.0185C24.206 21.2795 23.0255 21.6507 22.5505 22.88C21.9596 24.4088 22.1204 25.9085 22.7455 27.3866C22.7716 27.4481 22.7917 27.5124 22.8145 27.5752C22.6209 27.5698 22.4373 27.6016 22.2792 27.726C21.8249 26.7814 21.5972 25.7733 21.6219 24.7347C21.6548 23.3709 22.0159 22.1179 23.1635 21.2396C23.2942 21.1395 23.2767 21.0422 23.2164 20.9191C22.7991 20.0766 22.4098 19.2179 21.8129 18.4809V18.4795Z" fill="#CDCCCC"/>
<path d="M15.3926 23.6738C15.288 24.4169 15.1775 25.1593 15.0804 25.9031C14.9725 26.7259 14.8774 27.5502 14.7762 28.3731C14.0955 26.849 13.4135 25.3263 12.7362 23.8015C12.2129 22.6237 11.6937 21.4438 11.1745 20.2645C11.1115 20.1219 11.0586 19.9751 11.001 19.8298C11.143 19.8433 11.1979 19.9576 11.2676 20.0597C11.9918 21.1212 12.7188 22.1815 13.4443 23.2424C13.6674 23.5689 13.6848 23.5696 13.9944 23.2958C14.1933 23.12 14.3427 22.882 14.6114 22.7947C14.5732 22.9192 14.6677 22.9766 14.7387 23.0415C14.9497 23.2356 15.1648 23.4263 15.3778 23.6183C15.3812 23.6366 15.3865 23.6548 15.3926 23.6724V23.6738Z" fill="#009EBE"/>
<path d="M17.2227 28.3433C17.0324 26.851 16.8421 25.3594 16.6505 23.8671C16.6418 23.8016 16.617 23.738 16.5996 23.6738C16.6063 23.6562 16.611 23.6379 16.6143 23.6197C16.7236 23.5264 16.8488 23.4466 16.9386 23.337C17.0867 23.1565 17.3607 23.0801 17.3828 22.7954C17.7064 22.8779 17.8538 23.1883 18.1003 23.3729C18.302 23.5243 18.3897 23.4905 18.513 23.3073C18.9612 22.6399 19.4175 21.9786 19.8703 21.314C20.1598 20.8893 20.4492 20.4654 20.7359 20.0394C20.7929 19.9549 20.8458 19.8704 20.943 19.8284C20.9657 19.9468 20.9168 20.0482 20.8713 20.151C19.6848 22.8346 18.4983 25.5177 17.3104 28.2007C17.2883 28.2514 17.2521 28.2953 17.2227 28.3427V28.3433Z" fill="#009EBE"/>
<path d="M8.85004 18.8886C9.14013 18.6492 9.49119 18.5877 9.84761 18.5451C9.66002 18.9542 9.3639 19.2896 9.09994 19.6439C7.75198 21.4533 6.92659 23.4831 6.53399 25.705C6.50049 25.8957 6.58223 25.9538 6.7122 26.0437C7.1872 26.3724 7.4639 26.8274 7.36206 27.4184C7.26492 27.9836 6.95339 28.4056 6.36918 28.5651C5.62687 28.7673 4.93681 28.3623 4.69228 27.5773C4.48928 26.9255 4.88187 26.1188 5.54848 25.9356C5.84996 25.8531 5.92701 25.6881 5.97391 25.4311C6.1548 24.4379 6.41474 23.4676 6.80265 22.5331C7.29507 21.3471 7.94895 20.2565 8.68925 19.2159C8.76161 19.1144 8.83262 19.0164 8.85004 18.8893V18.8886ZM6.00539 26.5725C5.60074 26.5725 5.30596 26.849 5.30931 27.2236C5.31266 27.58 5.63759 27.9113 5.99334 27.9208C6.35712 27.9309 6.70617 27.5867 6.70617 27.2189C6.70617 26.843 6.41273 26.5725 6.00539 26.5732V26.5725Z" fill="#CDCCCC"/>
<path d="M22.2794 27.7247C22.4375 27.6002 22.6211 27.5685 22.8147 27.5739C23.2381 27.7618 23.3909 28.0195 23.287 28.3704C23.1959 28.6787 22.9119 28.8532 22.5883 28.8004C22.1059 28.722 21.9578 28.2054 22.2794 27.7247Z" fill="#6A6A6A"/>
<path d="M27.0903 26.7834C27.2973 26.7185 27.4976 26.732 27.6912 26.8341C27.9371 27.0411 28.0376 27.298 27.9143 27.6063C27.8199 27.843 27.6276 27.9742 27.3737 27.9843C27.1178 27.9944 26.9235 27.8707 26.8096 27.6442C26.695 27.417 26.7171 27.1878 26.8726 26.9849C26.9322 26.9072 27.0166 26.8497 27.0903 26.7834Z" fill="#6A6A6A"/>
<path d="M9.84668 18.5471C9.86812 18.5262 9.89023 18.5052 9.91167 18.4836C9.89023 18.5045 9.86812 18.5255 9.84668 18.5471Z" fill="#CDCCCC"/>
<path d="M20.3974 15.8594C20.3143 15.9913 20.2312 16.1225 20.1475 16.2543C20.1227 16.2787 20.0979 16.3023 20.0738 16.3267L20.0778 16.3246C19.6356 16.7946 19.1921 17.2591 18.6689 17.6445C17.8837 18.2226 17.0147 18.581 16.0487 18.6019C15.1991 18.6209 14.4153 18.3254 13.6917 17.8744C12.9742 17.4268 12.4215 16.7973 11.848 16.1894L11.852 16.1921C11.8279 16.1678 11.8038 16.1441 11.7797 16.1198C11.718 16.0332 11.6557 15.9467 11.5941 15.8601C11.3589 15.3915 11.036 14.9764 10.8082 14.5017C10.547 13.9567 10.2937 13.4104 10.0921 12.8397C10.0565 12.7403 10.0452 12.6112 9.88771 12.6172C9.09314 12.6477 8.83789 12.054 8.62149 11.4576C8.46204 11.0181 8.45266 10.5549 8.67777 10.1202C8.79367 9.89636 8.93905 9.69825 9.22914 9.70163C9.37252 10.3879 9.49713 11.0796 9.76243 11.7389C9.75372 11.2068 9.72491 10.6753 9.80464 10.1492C10.1034 8.17959 11.3891 6.96588 13.3762 6.74275C14.956 6.56559 16.5304 6.34922 18.0585 5.88267C18.7198 5.6805 19.3743 5.46007 19.9264 5.02191C20.0852 4.89547 20.1434 5.02665 20.2205 5.10305C20.8791 5.75893 21.269 6.57235 21.5463 7.44663C21.9979 8.8713 22.1567 10.3392 22.1533 11.9106C22.3536 11.5043 22.4307 11.1351 22.5352 10.7767C22.6451 10.4008 22.7389 10.0201 22.84 9.64145C23.3257 9.80373 23.437 10.2189 23.4711 10.6543C23.5187 11.2527 23.3023 11.7815 22.9338 12.2399C22.7543 12.4631 22.5071 12.6152 22.2116 12.603C22.0059 12.5949 21.9423 12.6984 21.8914 12.8627C21.555 13.9432 21.0218 14.925 20.398 15.8594H20.3974Z" fill="#FEDFB1"/>
<path d="M11.8476 16.1894C12.4211 16.7966 12.9738 17.4268 13.6913 17.8744C14.4149 18.3254 15.1987 18.6209 16.0482 18.6019C17.0143 18.5803 17.8832 18.2226 18.6684 17.6445C19.1917 17.2591 19.6358 16.7946 20.0773 16.3246C19.9105 16.9061 19.5441 17.3788 19.2165 17.8656C18.377 19.1145 17.3948 20.241 16.2907 21.262C16.0757 21.4607 15.9397 21.4878 15.7119 21.2735C14.2541 19.9029 12.9825 18.3849 12.011 16.6215C11.9367 16.4869 11.8308 16.3605 11.8462 16.1894H11.8476Z" fill="#F5C986"/>
<path d="M17.3836 22.7954C17.3622 23.0801 17.0875 23.1565 16.9394 23.337C16.8497 23.4466 16.7244 23.5264 16.6152 23.6197C16.2025 23.6197 15.7904 23.6197 15.3778 23.6197C15.1647 23.4276 14.9497 23.237 14.7386 23.0429C14.6676 22.978 14.5731 22.9205 14.6113 22.7961C15.0193 22.431 15.432 22.0719 15.832 21.6987C15.9586 21.5811 16.0363 21.5817 16.1623 21.6987C16.5629 22.0713 16.9749 22.431 17.3829 22.7961L17.3836 22.7954Z" fill="#525354"/>
<path d="M20.0742 16.3266C20.099 16.3022 20.1238 16.2786 20.1479 16.2542C20.1231 16.2786 20.0983 16.3022 20.0742 16.3266Z" fill="#F5C986"/>
<path d="M15.3779 23.619C15.7906 23.619 16.2026 23.619 16.6153 23.619C16.612 23.6372 16.6066 23.6555 16.6006 23.673C16.198 23.673 15.796 23.673 15.3933 23.673C15.3866 23.6555 15.382 23.6372 15.3786 23.619H15.3779Z" fill="#59707C"/>
<path d="M6.00471 26.5725C6.41204 26.5725 6.70549 26.8422 6.70549 27.2182C6.70549 27.586 6.35644 27.9302 5.99265 27.92C5.6369 27.9106 5.31197 27.5786 5.30862 27.2229C5.30527 26.8483 5.60005 26.5725 6.00471 26.5718V26.5725Z" fill="#B4B4B4"/>
</svg>
