<svg width="14" height="14" viewBox="0 0 14 14" fill="none" xmlns="http://www.w3.org/2000/svg">
<g clip-path="url(#clip0_4404_5729)">
<path fill-rule="evenodd" clip-rule="evenodd" d="M7.00008 1.16666C7.15479 1.16666 7.30316 1.22811 7.41256 1.33751C7.52196 1.44691 7.58342 1.59528 7.58342 1.74999V1.78207C8.76692 1.91473 9.87021 2.44565 10.7123 3.28776C11.5544 4.12986 12.0853 5.23315 12.218 6.41666H12.2501C12.4048 6.41666 12.5532 6.47812 12.6626 6.58751C12.772 6.69691 12.8334 6.84528 12.8334 6.99999C12.8334 7.1547 12.772 7.30307 12.6626 7.41247C12.5532 7.52187 12.4048 7.58332 12.2501 7.58332H12.218C12.0853 8.76683 11.5544 9.87012 10.7123 10.7122C9.87021 11.5543 8.76692 12.0852 7.58342 12.2179V12.25C7.58342 12.4047 7.52196 12.5531 7.41256 12.6625C7.30316 12.7719 7.15479 12.8333 7.00008 12.8333C6.84537 12.8333 6.697 12.7719 6.5876 12.6625C6.47821 12.5531 6.41675 12.4047 6.41675 12.25V12.2179C5.23324 12.0852 4.12996 11.5543 3.28785 10.7122C2.44575 9.87012 1.91482 8.76683 1.78216 7.58332H1.75008C1.59537 7.58332 1.447 7.52187 1.3376 7.41247C1.22821 7.30307 1.16675 7.1547 1.16675 6.99999C1.16675 6.84528 1.22821 6.69691 1.3376 6.58751C1.447 6.47812 1.59537 6.41666 1.75008 6.41666H1.78216C1.91482 5.23315 2.44575 4.12986 3.28785 3.28776C4.12996 2.44565 5.23324 1.91473 6.41675 1.78207V1.74999C6.41675 1.59528 6.47821 1.44691 6.5876 1.33751C6.697 1.22811 6.84537 1.16666 7.00008 1.16666ZM7.00008 2.91666C6.46385 2.91666 5.93287 3.02228 5.43746 3.22748C4.94204 3.43269 4.4919 3.73346 4.11273 4.11264C3.73356 4.49181 3.43278 4.94195 3.22757 5.43737C3.02237 5.93278 2.91675 6.46376 2.91675 6.99999C2.91675 7.53622 3.02237 8.0672 3.22757 8.56261C3.43278 9.05803 3.73356 9.50817 4.11273 9.88734C4.4919 10.2665 4.94204 10.5673 5.43746 10.7725C5.93287 10.9777 6.46385 11.0833 7.00008 11.0833C8.08305 11.0833 9.12166 10.6531 9.88743 9.88734C10.6532 9.12157 11.0834 8.08296 11.0834 6.99999C11.0834 5.91702 10.6532 4.87841 9.88743 4.11264C9.12166 3.34686 8.08305 2.91666 7.00008 2.91666ZM7.00008 4.66666C7.61892 4.66666 8.21241 4.91249 8.65 5.35007C9.08758 5.78766 9.33342 6.38115 9.33342 6.99999C9.33342 7.61883 9.08758 8.21232 8.65 8.64991C8.21241 9.08749 7.61892 9.33332 7.00008 9.33332C6.38124 9.33332 5.78775 9.08749 5.35017 8.64991C4.91258 8.21232 4.66675 7.61883 4.66675 6.99999C4.66675 6.38115 4.91258 5.78766 5.35017 5.35007C5.78775 4.91249 6.38124 4.66666 7.00008 4.66666ZM7.00008 5.83332C6.69066 5.83332 6.39392 5.95624 6.17512 6.17503C5.95633 6.39383 5.83342 6.69057 5.83342 6.99999C5.83342 7.30941 5.95633 7.60616 6.17512 7.82495C6.39392 8.04374 6.69066 8.16666 7.00008 8.16666C7.3095 8.16666 7.60625 8.04374 7.82504 7.82495C8.04383 7.60616 8.16675 7.30941 8.16675 6.99999C8.16675 6.69057 8.04383 6.39383 7.82504 6.17503C7.60625 5.95624 7.3095 5.83332 7.00008 5.83332Z" fill="#484848"/>
</g>
<defs>
<clipPath id="clip0_4404_5729">
<rect width="14" height="14" fill="white"/>
</clipPath>
</defs>
</svg>
