<svg width="16" height="16" viewBox="0 0 16 16" fill="none" xmlns="http://www.w3.org/2000/svg">
<path d="M4.3136 7.01204C4.54235 6.31999 4.9838 5.71786 5.57499 5.29154C6.16618 4.86522 6.87691 4.6365 7.60578 4.63799C8.432 4.63799 9.17903 4.93133 9.76569 5.41141L11.4729 3.7047C10.4325 2.79781 9.09934 2.23804 7.60578 2.23804C5.29334 2.23804 3.30258 3.55706 2.34534 5.48915L4.3136 7.01204Z" fill="#EA4335"/>
<path d="M9.58089 11.0444C9.04801 11.3881 8.37138 11.5714 7.60578 11.5714C6.87982 11.5729 6.17178 11.346 5.5819 10.9228C4.99202 10.4997 4.5502 9.90166 4.31898 9.2135L2.34387 10.7129C2.82848 11.6938 3.57845 12.5191 4.50859 13.0951C5.43872 13.671 6.51175 13.9746 7.60578 13.9714C9.03969 13.9714 10.4096 13.4615 11.4357 12.5047L9.58138 11.0444H9.58089Z" fill="#34A853"/>
<path d="M11.4357 12.5047C12.5088 11.5035 13.2054 10.0133 13.2054 8.10472C13.2054 7.75761 13.1522 7.38459 13.0725 7.03796H7.60571V9.30494H10.7522C10.5972 10.0671 10.1802 10.6572 9.58131 11.0444L11.4357 12.5047Z" fill="#9DC748"/>
<path d="M4.31894 9.21349C4.19933 8.85607 4.13857 8.48159 4.13903 8.10469C4.13903 7.72238 4.20014 7.35522 4.31356 7.01202L2.34529 5.48914C1.94263 6.302 1.73506 7.19757 1.73907 8.10469C1.73907 9.04336 1.95663 9.92825 2.34383 10.7129L4.31894 9.21349Z" fill="#FBBC05"/>
</svg>
