<svg width="12" height="14" viewBox="0 0 12 14" fill="none" xmlns="http://www.w3.org/2000/svg">
<g clip-path="url(#clip0_4404_5719)">
<path d="M3.39763 13.5029C3.3778 13.2459 3.34381 13.0059 3.34381 12.7658C3.33815 11.5627 3.34098 10.3595 3.34098 9.15636C3.34098 9.09987 3.34098 9.04338 3.34098 9.00384C3.1682 9.01514 3.00391 9.04903 2.84246 9.03209C2.41476 8.9869 2.08902 8.64233 2.08619 8.21304C2.07769 7.16523 2.07203 6.12025 2.09186 5.07243C2.10602 4.37766 2.75182 3.7196 3.45428 3.66029C3.77152 3.63205 4.09159 3.6377 4.40882 3.63487C5.10845 3.63487 5.8109 3.61228 6.50769 3.65182C7.37443 3.70265 7.98341 4.35506 7.99758 5.22212C8.01457 6.20215 8.00607 7.17935 8.00041 8.15938C7.99757 8.74119 7.44524 9.22132 6.73712 8.97278C6.73712 9.04056 6.73712 9.09987 6.73712 9.15918C6.73712 10.3313 6.73995 11.5033 6.73429 12.6754C6.73429 12.9466 6.7003 13.2177 6.68047 13.4945C7.37443 13.4945 8.10804 13.4945 8.85298 13.4945C8.85298 13.116 8.85298 12.7432 8.85298 12.3506C8.91813 12.3478 8.97478 12.3422 9.0286 12.3422C9.4733 12.3422 9.91516 12.345 10.3599 12.3422C10.5638 12.3422 10.6828 12.2122 10.6431 12.04C10.6091 11.8874 10.493 11.8423 10.3457 11.8423C9.91233 11.8423 9.47896 11.8423 9.04559 11.8423C8.98894 11.8423 8.93229 11.8423 8.86715 11.8423C8.86715 11.5175 8.86715 11.2096 8.86715 10.8792C9.14756 10.8792 9.42231 10.882 9.69989 10.8792C9.87551 10.8763 9.98031 10.7606 9.95482 10.5996C9.93216 10.4584 9.83869 10.3962 9.70273 10.3934C9.48463 10.3906 9.26369 10.3906 9.04559 10.3906C8.98894 10.3906 8.93229 10.3906 8.86715 10.3906C8.86715 10.0686 8.86715 9.76358 8.86715 9.43879C8.92096 9.43596 8.97761 9.43031 9.03143 9.43031C9.4478 9.43031 9.86701 9.43031 10.2834 9.43031C10.3315 9.43031 10.3769 9.43314 10.425 9.42466C10.5751 9.39925 10.6573 9.29475 10.6459 9.15353C10.6346 9.02361 10.5383 8.93606 10.3882 8.93324C9.94915 8.93041 9.51012 8.93324 9.07108 8.93324C9.00877 8.93324 8.94646 8.93324 8.86998 8.93324C8.86998 8.61409 8.86998 8.3006 8.86998 7.97016C9.1334 7.97016 9.39399 7.97016 9.65174 7.97016C9.84718 7.97016 9.95199 7.88825 9.95482 7.73291C9.95765 7.56911 9.85568 7.47873 9.65174 7.4759C9.39115 7.47308 9.1334 7.4759 8.86431 7.4759C8.86431 7.15394 8.86431 6.84891 8.86431 6.52977C8.92379 6.52694 8.97761 6.52129 9.03426 6.52129C9.4478 6.52129 9.85851 6.52129 10.2721 6.52129C10.323 6.52129 10.3769 6.52129 10.4278 6.51282C10.5723 6.49023 10.6516 6.3942 10.6431 6.25581C10.6374 6.12307 10.5411 6.02987 10.3939 6.02987C9.94349 6.02704 9.49596 6.02987 9.04559 6.02704C8.98894 6.02704 8.93229 6.02704 8.86431 6.02704C8.86431 5.70507 8.86431 5.39723 8.86431 5.06396C9.13623 5.06396 9.41098 5.06679 9.68573 5.06396C9.85568 5.06114 9.95765 4.95946 9.95199 4.80413C9.94632 4.65726 9.84435 4.56971 9.66024 4.56689C9.39965 4.56406 9.13906 4.56689 8.86431 4.56689C8.86431 4.25057 8.86431 3.93989 8.86431 3.60945C8.92379 3.60945 8.98611 3.60945 9.04559 3.60945C9.49029 3.60945 9.93216 3.60945 10.3769 3.60945C10.5043 3.60945 10.6006 3.55579 10.6318 3.42587C10.6601 3.30725 10.6205 3.20558 10.5072 3.15192C10.4533 3.1265 10.3854 3.12367 10.3259 3.12367C9.89817 3.12085 9.47046 3.12367 9.03993 3.12367C8.98328 3.12367 8.92663 3.12367 8.86148 3.12367C8.86148 2.79888 8.86148 2.49103 8.86148 2.16059C9.12773 2.16059 9.39115 2.16342 9.65741 2.16059C9.82452 2.16059 9.92649 2.08434 9.94632 1.95724C9.97465 1.78779 9.86418 1.66634 9.66874 1.66352C9.40248 1.66069 9.13623 1.66352 8.85298 1.66352C8.85298 1.27659 8.85298 0.900959 8.85298 0.505559C8.77934 0.505559 8.72269 0.505559 8.66887 0.505559C8.22417 0.505559 7.78231 0.505559 7.33761 0.505559C7.17049 0.505559 7.06002 0.398236 7.06286 0.251373C7.06569 0.110158 7.17332 0.00848389 7.33194 0.00848389C8.77934 0.00848389 10.2239 0.00848389 11.6713 0.00848389C11.8214 0.00848389 11.9149 0.0960369 11.9347 0.2429C11.9432 0.293737 11.9376 0.347399 11.9376 0.398236C11.9376 4.80413 11.9376 9.21002 11.9376 13.6159C11.9376 13.6667 11.9404 13.7204 11.9347 13.7712C11.9149 13.9181 11.8214 14 11.6713 14.0057C11.6288 14.0085 11.5892 14.0057 11.5467 14.0057C7.98908 14.0057 4.43432 14.0057 0.876722 14.0057C0.85123 14.0057 0.825737 14.0057 0.797413 14.0057C0.604804 14.0028 0.48584 13.9096 0.48584 13.7571C0.48584 13.6046 0.604804 13.5086 0.800245 13.5086C1.616 13.5086 2.42892 13.5086 3.24467 13.5086C3.31549 13.5029 3.37214 13.5029 3.39763 13.5029Z" fill="#484848"/>
<path d="M6.38299 1.4884C6.38299 2.31027 5.71453 2.9768 4.89027 2.97962C4.06886 2.97962 3.40039 2.31027 3.40039 1.4884C3.40039 0.660884 4.06319 0 4.89027 0C5.71736 0 6.38299 0.663708 6.38299 1.4884Z" fill="#484848"/>
</g>
<defs>
<clipPath id="clip0_4404_5719">
<rect width="11.4545" height="14" fill="white" transform="translate(0.5)"/>
</clipPath>
</defs>
</svg>
