<svg width="20" height="24" viewBox="0 0 20 24" fill="none" xmlns="http://www.w3.org/2000/svg">
<g clip-path="url(#clip0_4603_2941)">
<path d="M4.96722 23.1479C4.93323 22.7073 4.87497 22.2957 4.87497 21.8842C4.86525 19.8217 4.87011 17.7591 4.87011 15.6966C4.87011 15.5998 4.87011 15.5029 4.87011 15.4351C4.57391 15.4545 4.29228 15.5126 4.01551 15.4836C3.2823 15.4061 2.7239 14.8154 2.71904 14.0795C2.70448 12.2832 2.69477 10.4918 2.72876 8.69558C2.75303 7.50454 3.86013 6.37644 5.06434 6.27477C5.60817 6.22635 6.15686 6.23603 6.7007 6.23119C7.90005 6.23119 9.10426 6.19246 10.2988 6.26024C11.7846 6.34739 12.8286 7.46581 12.8528 8.95219C12.882 10.6322 12.8674 12.3074 12.8577 13.9875C12.8528 14.9849 11.906 15.808 10.6921 15.3819C10.6921 15.4981 10.6921 15.5998 10.6921 15.7014C10.6921 17.7107 10.6969 19.72 10.6872 21.7293C10.6872 22.1941 10.6289 22.6589 10.595 23.1334C11.7846 23.1334 13.0422 23.1334 14.3193 23.1334C14.3193 22.4846 14.3193 21.8455 14.3193 21.1725C14.4309 21.1676 14.5281 21.158 14.6203 21.158C15.3827 21.158 16.1401 21.1628 16.9025 21.158C17.2521 21.158 17.456 20.9352 17.388 20.6399C17.3298 20.3785 17.1307 20.301 16.8782 20.301C16.1353 20.301 15.3924 20.301 14.6494 20.301C14.5523 20.301 14.4552 20.301 14.3435 20.301C14.3435 19.7442 14.3435 19.2165 14.3435 18.65C14.8242 18.65 15.2952 18.6548 15.7711 18.65C16.0722 18.6452 16.2518 18.4466 16.2081 18.1707C16.1693 17.9286 16.009 17.8221 15.776 17.8172C15.4021 17.8124 15.0233 17.8124 14.6494 17.8124C14.5523 17.8124 14.4552 17.8124 14.3435 17.8124C14.3435 17.2604 14.3435 16.7375 14.3435 16.1808C14.4358 16.1759 14.5329 16.1662 14.6252 16.1662C15.339 16.1662 16.0576 16.1662 16.7714 16.1662C16.8539 16.1662 16.9316 16.1711 17.0142 16.1565C17.2715 16.113 17.4123 15.9338 17.3929 15.6918C17.3735 15.469 17.2084 15.3189 16.951 15.3141C16.1984 15.3093 15.4458 15.3141 14.6931 15.3141C14.5863 15.3141 14.4795 15.3141 14.3484 15.3141C14.3484 14.767 14.3484 14.2296 14.3484 13.6631C14.8 13.6631 15.2467 13.6631 15.6886 13.6631C16.0236 13.6631 16.2033 13.5227 16.2081 13.2564C16.213 12.9756 16.0382 12.8207 15.6886 12.8158C15.2418 12.811 14.8 12.8158 14.3387 12.8158C14.3387 12.2639 14.3387 11.741 14.3387 11.1939C14.4407 11.189 14.5329 11.1793 14.63 11.1793C15.339 11.1793 16.043 11.1793 16.752 11.1793C16.8394 11.1793 16.9316 11.1793 17.019 11.1648C17.2667 11.1261 17.4026 10.9615 17.388 10.7242C17.3783 10.4967 17.2132 10.3369 16.9607 10.3369C16.1887 10.3321 15.4215 10.3369 14.6494 10.3321C14.5523 10.3321 14.4552 10.3321 14.3387 10.3321C14.3387 9.78011 14.3387 9.25237 14.3387 8.68106C14.8048 8.68106 15.2758 8.6859 15.7468 8.68106C16.0382 8.67622 16.213 8.50192 16.2033 8.23563C16.1936 7.98386 16.0187 7.83377 15.7031 7.82893C15.2564 7.82409 14.8097 7.82893 14.3387 7.82893C14.3387 7.28667 14.3387 6.75409 14.3387 6.18762C14.4407 6.18762 14.5475 6.18762 14.6494 6.18762C15.4118 6.18762 16.1693 6.18762 16.9316 6.18762C17.1501 6.18762 17.3152 6.09562 17.3686 5.87291C17.4172 5.66956 17.3492 5.49526 17.155 5.40327C17.0627 5.35969 16.9462 5.35485 16.8442 5.35485C16.111 5.35001 15.3778 5.35485 14.6397 5.35485C14.5426 5.35485 14.4455 5.35485 14.3338 5.35485C14.3338 4.79806 14.3338 4.27033 14.3338 3.70385C14.7903 3.70385 15.2418 3.7087 15.6983 3.70385C15.9848 3.70385 16.1596 3.57313 16.1936 3.35526C16.2421 3.06476 16.0527 2.85657 15.7177 2.85173C15.2613 2.84688 14.8048 2.85173 14.3193 2.85173C14.3193 2.18842 14.3193 1.54448 14.3193 0.866655C14.193 0.866655 14.0959 0.866655 14.0036 0.866655C13.2413 0.866655 12.4838 0.866655 11.7215 0.866655C11.435 0.866655 11.2456 0.682672 11.2505 0.430907C11.2553 0.188825 11.4398 0.0145264 11.7118 0.0145264C14.193 0.0145264 16.6694 0.0145264 19.1507 0.0145264C19.408 0.0145264 19.5682 0.164617 19.6022 0.416382C19.6168 0.503532 19.6071 0.595523 19.6071 0.682672C19.6071 8.23563 19.6071 15.7886 19.6071 23.3415C19.6071 23.4287 19.6119 23.5207 19.6022 23.6078C19.5682 23.8596 19.408 24 19.1507 24.0097C19.0778 24.0145 19.0098 24.0097 18.937 24.0097C12.8383 24.0097 6.7444 24.0097 0.64567 24.0097C0.601968 24.0097 0.558267 24.0097 0.509711 24.0097C0.179524 24.0048 -0.0244141 23.8451 -0.0244141 23.5836C-0.0244141 23.3222 0.179524 23.1576 0.514566 23.1576C1.913 23.1576 3.30658 23.1576 4.70502 23.1576C4.82641 23.1479 4.92352 23.1479 4.96722 23.1479Z" fill="#25B858"/>
<path d="M10.0847 2.55154C10.0847 3.96046 8.93877 5.10309 7.52577 5.10793C6.11762 5.10793 4.97168 3.96046 4.97168 2.55154C4.97168 1.13294 6.10791 0 7.52577 0C8.94362 0 10.0847 1.13778 10.0847 2.55154Z" fill="#25B858"/>
</g>
<defs>
<clipPath id="clip0_4603_2941">
<rect width="19.6364" height="24" fill="white"/>
</clipPath>
</defs>
</svg>
