<svg width="33" height="34" viewBox="0 0 33 34" fill="none" xmlns="http://www.w3.org/2000/svg">
<path d="M12.7595 28.6992V24.664C12.7595 23.6377 13.5962 22.8037 14.6329 22.7968H18.4304C19.472 22.7968 20.3165 23.6328 20.3165 24.664V28.7117C20.3162 29.5832 21.0188 30.2954 21.8987 30.3158H24.4304C26.9541 30.3158 29 28.2904 29 25.7919V14.3129C28.9865 13.33 28.5204 12.407 27.7342 11.8066L19.0759 4.90171C17.5591 3.69943 15.4029 3.69943 13.8861 4.90171L5.26582 11.8192C4.47666 12.4171 4.00972 13.3417 4 14.3255V25.7919C4 28.2904 6.04589 30.3158 8.56962 30.3158H11.1013C12.0031 30.3158 12.7342 29.592 12.7342 28.6992" stroke="#595959" stroke-width="1.5" stroke-linecap="round" stroke-linejoin="round"/>
</svg>
