<svg width="33" height="34" viewBox="0 0 33 34" fill="none" xmlns="http://www.w3.org/2000/svg">
<g clip-path="url(#clip0_4762_6666)">
<path d="M29.5 14.06V25.55C29.5 28.45 27.11 30.82 24.18 30.82H21.65C20.35 30.79 19.32 29.73 19.32 28.46V24.42C19.32 23.8 18.81 23.3 18.18 23.3H14.38C13.77 23.3 13.26 23.81 13.26 24.42V28.45C13.26 28.53 13.25 28.61 13.22 28.69C13.1 29.88 12.09 30.82 10.85 30.82H8.32C5.39 30.82 3 28.45 3 25.55V14.08C3.01 12.85 3.58 11.72 4.56 10.97L13.17 4.07C14.97 2.64 17.49 2.64 19.29 4.07L27.95 10.97C28.91 11.71 29.48 12.84 29.5 14.06Z" fill="#25B858"/>
</g>
<defs>
<clipPath id="clip0_4762_6666">
<rect width="26.5" height="27.82" fill="white" transform="translate(3 3)"/>
</clipPath>
</defs>
</svg>
