<svg width="17" height="16" viewBox="0 0 17 16" fill="none" xmlns="http://www.w3.org/2000/svg">
<path fill-rule="evenodd" clip-rule="evenodd" d="M8.50016 14.6666C4.81816 14.6666 1.8335 11.682 1.8335 7.99998C1.8335 4.31798 4.81816 1.33331 8.50016 1.33331C12.1822 1.33331 15.1668 4.31798 15.1668 7.99998C15.1668 11.682 12.1822 14.6666 8.50016 14.6666ZM8.50016 13.8666C10.0561 13.8666 11.5483 13.2486 12.6485 12.1483C13.7487 11.0481 14.3668 9.55592 14.3668 7.99998C14.3668 6.44404 13.7487 4.95183 12.6485 3.85162C11.5483 2.75141 10.0561 2.13331 8.50016 2.13331C6.94423 2.13331 5.45202 2.75141 4.3518 3.85162C3.25159 4.95183 2.6335 6.44404 2.6335 7.99998C2.6335 9.55592 3.25159 11.0481 4.3518 12.1483C5.45202 13.2486 6.94423 13.8666 8.50016 13.8666ZM8.10016 6.66665H8.90016V11.3333H8.10016V6.66665ZM8.50016 5.99998C8.32335 5.99998 8.15378 5.92974 8.02876 5.80472C7.90373 5.67969 7.8335 5.51012 7.8335 5.33331C7.8335 5.1565 7.90373 4.98693 8.02876 4.86191C8.15378 4.73688 8.32335 4.66665 8.50016 4.66665C8.67697 4.66665 8.84654 4.73688 8.97157 4.86191C9.09659 4.98693 9.16683 5.1565 9.16683 5.33331C9.16683 5.51012 9.09659 5.67969 8.97157 5.80472C8.84654 5.92974 8.67697 5.99998 8.50016 5.99998Z" fill="#4D5364"/>
</svg>
