<svg width="22" height="26" viewBox="0 0 22 26" fill="none" xmlns="http://www.w3.org/2000/svg">
<g clip-path="url(#clip0_0_21121)">
<path d="M6.12245 1.65625C6.12245 1.22656 5.77806 0.875 5.35714 0.875C4.93622 0.875 4.59184 1.22656 4.59184 1.65625V4H3.06122C1.37277 4 0 5.40137 0 7.125V8.6875V10.25V22.75C0 24.4736 1.37277 25.875 3.06122 25.875H18.3673C20.0558 25.875 21.4286 24.4736 21.4286 22.75V10.25V8.6875V7.125C21.4286 5.40137 20.0558 4 18.3673 4H16.8367V1.65625C16.8367 1.22656 16.4923 0.875 16.0714 0.875C15.6505 0.875 15.3061 1.22656 15.3061 1.65625V4H6.12245V1.65625ZM1.53061 10.25H19.898V22.75C19.898 23.6143 19.214 24.3125 18.3673 24.3125H3.06122C2.2146 24.3125 1.53061 23.6143 1.53061 22.75V10.25ZM3.06122 5.5625H18.3673C19.214 5.5625 19.898 6.26074 19.898 7.125V8.6875H1.53061V7.125C1.53061 6.26074 2.2146 5.5625 3.06122 5.5625ZM4.97449 13.375H8.80102C9.01148 13.375 9.18367 13.5508 9.18367 13.7656V17.6719C9.18367 17.8867 9.01148 18.0625 8.80102 18.0625H4.97449C4.76403 18.0625 4.59184 17.8867 4.59184 17.6719V13.7656C4.59184 13.5508 4.76403 13.375 4.97449 13.375ZM3.06122 13.7656V17.6719C3.06122 18.751 3.91741 19.625 4.97449 19.625H8.80102C9.8581 19.625 10.7143 18.751 10.7143 17.6719V13.7656C10.7143 12.6865 9.8581 11.8125 8.80102 11.8125H4.97449C3.91741 11.8125 3.06122 12.6865 3.06122 13.7656Z" fill="black"/>
</g>
<defs>
<clipPath id="clip0_0_21121">
<rect width="21.4286" height="25" fill="white" transform="translate(0 0.875)"/>
</clipPath>
</defs>
</svg>
