<svg width="24" height="24" viewBox="0 0 24 24" fill="none" xmlns="http://www.w3.org/2000/svg">
<g clip-path="url(#clip0_4505_5401)">
<path opacity="0.4" d="M23.5562 6.26537C23.5562 11.4803 23.5562 16.6999 23.5562 21.9148C23.5425 21.9467 23.5197 21.9832 23.5151 22.0151C23.2872 23.0043 22.4895 23.6425 21.4683 23.6425C17.9947 23.6425 14.5257 23.6425 11.0521 23.6425C10.9928 23.6425 10.929 23.6334 10.8378 23.6288C12.6795 22.2476 13.7188 20.447 13.9787 18.1859C14.079 18.1859 14.161 18.1859 14.2431 18.1859C15.9935 18.1859 17.744 18.1859 19.4991 18.1859C19.5674 18.1859 19.6358 18.1905 19.7042 18.1859C20.0871 18.1631 20.388 17.8532 20.3789 17.493C20.3743 17.1375 20.078 16.8457 19.7042 16.8229C19.6358 16.8184 19.5674 16.8229 19.4991 16.8229C17.7486 16.8229 15.9981 16.8229 14.2431 16.8229C14.1565 16.8229 14.0653 16.8229 14.006 16.8229C13.9012 16.3306 13.8237 15.8702 13.696 15.4189C13.5684 14.9722 13.3815 14.5437 13.222 14.0924C13.304 14.0924 13.3861 14.0924 13.4681 14.0924C15.4784 14.0924 17.4842 14.0924 19.4945 14.0924C19.5629 14.0924 19.6313 14.0969 19.6996 14.0924C20.0826 14.0696 20.3834 13.7596 20.3743 13.3995C20.3697 13.0439 20.078 12.7522 19.7042 12.7248C19.6358 12.7203 19.5674 12.7248 19.4991 12.7248C17.1651 12.7248 14.8266 12.7248 12.4926 12.7294C12.3422 12.7294 12.2419 12.6883 12.1416 12.5744C11.9456 12.3556 11.7404 12.1368 11.5216 11.9407C10.268 10.8193 8.80929 10.1629 7.1272 10.0398C6.69869 10.0079 6.27019 10.0353 5.82801 10.0353C5.82345 9.96234 5.8189 9.9122 5.8189 9.85749C5.8189 7.34574 5.80978 4.83855 5.82345 2.32679C5.82801 1.53361 6.23372 0.950115 6.93118 0.576315C7.12264 0.476028 7.33689 0.421325 7.54202 0.348389C10.9108 0.348389 14.275 0.348389 17.6437 0.348389C17.6437 2.05328 17.6437 3.75817 17.6437 5.46307C17.6437 5.9873 17.9172 6.26081 18.4415 6.26081C20.1464 6.26993 21.8513 6.26993 23.5562 6.26537ZM14.6807 8.63125C13.6368 8.63125 12.5883 8.63125 11.5444 8.63125C10.929 8.63125 10.3182 8.62213 9.70277 8.63581C9.18765 8.64492 8.85488 9.13269 9.05545 9.57942C9.19677 9.89396 9.46117 9.99881 9.79394 9.99881C13.0533 9.99425 16.3126 9.99881 19.5674 9.99881C19.6221 9.99881 19.6723 10.0034 19.727 9.99425C20.2239 9.93955 20.5065 9.43811 20.2831 9.00961C20.1373 8.73154 19.8911 8.63125 19.5902 8.63125C17.9583 8.63125 16.3172 8.63125 14.6807 8.63125Z" fill="#08C5EB"/>
<path d="M0.353027 17.5113C0.353027 14.1152 3.09727 11.3664 6.48882 11.3664C9.88493 11.3664 12.6337 14.1061 12.6383 17.5022C12.6383 20.9074 9.88948 23.6516 6.4797 23.6516C3.10182 23.6425 0.353027 20.8937 0.353027 17.5113ZM7.17716 16.823C7.17716 16.7272 7.17716 16.6543 7.17716 16.5768C7.17716 16.0024 7.17716 15.4235 7.17716 14.8491C7.1726 14.4115 6.88541 14.097 6.49793 14.0924C6.11046 14.0924 5.81415 14.4069 5.81415 14.8446C5.80959 15.7107 5.80959 16.5722 5.81415 17.4384C5.81415 17.8988 6.1059 18.186 6.56631 18.1905C7.12701 18.1951 7.68771 18.1951 8.24841 18.1905C8.68147 18.186 9.00057 17.8897 8.99601 17.5022C8.99145 17.1101 8.67691 16.8275 8.23929 16.823C7.8974 16.8184 7.55551 16.823 7.17716 16.823Z" fill="#08C5EB"/>
<path opacity="0.4" d="M19.0156 4.88416C19.0156 3.51204 19.0156 2.15816 19.0156 0.836182C20.3604 2.18095 21.7188 3.53939 23.0636 4.88416C21.7507 4.88416 20.3923 4.88416 19.0156 4.88416Z" fill="#08C5EB"/>
</g>
<defs>
<clipPath id="clip0_4505_5401">
<rect width="23.2029" height="23.2941" fill="white" transform="translate(0.353027 0.352966)"/>
</clipPath>
</defs>
</svg>
