<svg width="25" height="18" viewBox="0 0 25 18" fill="none" xmlns="http://www.w3.org/2000/svg">
<rect x="0.293945" y="0.470642" width="24" height="17" rx="3" fill="#9CE8F7"/>
<path d="M21.2939 8.97064C21.2939 9.24678 21.0701 9.47064 20.7939 9.47064H12.7939C12.5178 9.47064 12.2939 9.24678 12.2939 8.97064C12.2939 8.6945 12.5178 8.47064 12.7939 8.47064H20.7939C21.0701 8.47064 21.2939 8.6945 21.2939 8.97064Z" fill="white"/>
<path d="M21.2939 5.97064C21.2939 6.24678 21.0701 6.47064 20.7939 6.47064H12.7939C12.5178 6.47064 12.2939 6.24678 12.2939 5.97064C12.2939 5.6945 12.5178 5.47064 12.7939 5.47064H20.7939C21.0701 5.47064 21.2939 5.6945 21.2939 5.97064Z" fill="white"/>
<path d="M21.2939 11.9706C21.2939 12.2468 21.0701 12.4706 20.7939 12.4706H15.7939C15.5178 12.4706 15.2939 12.2468 15.2939 11.9706C15.2939 11.6945 15.5178 11.4706 15.7939 11.4706H20.7939C21.0701 11.4706 21.2939 11.6945 21.2939 11.9706Z" fill="white"/>
<path d="M4.63145 8.84148L4.12728 12.6373L6.21061 11.3873L8.29395 12.6373L7.78978 8.83731M9.12728 6.38731C9.12728 7.99814 7.82144 9.30398 6.21061 9.30398C4.59978 9.30398 3.29395 7.99814 3.29395 6.38731C3.29395 4.77648 4.59978 3.47064 6.21061 3.47064C7.82144 3.47064 9.12728 4.77648 9.12728 6.38731Z" stroke="#08C5EB" stroke-linecap="round" stroke-linejoin="round"/>
<path d="M8.1866 6.38685C8.1866 7.49142 7.29117 8.38685 6.1866 8.38685C5.08203 8.38685 4.1866 7.49142 4.1866 6.38685C4.1866 5.28228 5.08203 4.38685 6.1866 4.38685C7.29117 4.38685 8.1866 5.28228 8.1866 6.38685Z" fill="#08C5EB"/>
</svg>
