<svg width="33" height="34" viewBox="0 0 33 34" fill="none" xmlns="http://www.w3.org/2000/svg">
<g clip-path="url(#clip0_4762_6414)">
<path d="M23.8899 10.25C23.8899 12.19 23.1199 14.01 21.7199 15.38C20.3399 16.75 18.4799 17.5 16.4999 17.5C14.5199 17.5 12.6599 16.75 11.2699 15.38C9.87986 14.01 9.10986 12.19 9.10986 10.25C9.10986 8.31 9.87986 6.5 11.2699 5.12C12.6499 3.77 14.5599 3 16.4999 3C18.4399 3 20.3499 3.77 21.7199 5.12C23.1199 6.5 23.8899 8.32 23.8899 10.25Z" fill="#25B858"/>
<path d="M29 29.6299C29 30.5299 28.26 31.2499 27.34 31.2499H5.66C4.74 31.2499 4 30.5299 4 29.6299C4 24.2399 8.45 19.8799 13.95 19.8799H19.05C24.55 19.8799 29 24.2399 29 29.6299Z" fill="#25B858"/>
</g>
<defs>
<clipPath id="clip0_4762_6414">
<rect width="25" height="28.25" fill="white" transform="translate(4 3)"/>
</clipPath>
</defs>
</svg>
