<svg width="33" height="34" viewBox="0 0 33 34" fill="none" xmlns="http://www.w3.org/2000/svg">
<path d="M22.75 10C22.75 8.37555 22.0915 6.81763 20.9194 5.66897C19.7473 4.52031 18.1576 3.875 16.5 3.875C14.8424 3.875 13.2527 4.52031 12.0806 5.66897C10.9085 6.81763 10.25 8.37555 10.25 10C10.25 11.6245 10.9085 13.1824 12.0806 14.331C13.2527 15.4797 14.8424 16.125 16.5 16.125C18.1576 16.125 19.7473 15.4797 20.9194 14.331C22.0915 13.1824 22.75 11.6245 22.75 10ZM9.35714 10C9.35714 8.14348 10.1097 6.36301 11.4492 5.05025C12.7888 3.7375 14.6056 3 16.5 3C18.3944 3 20.2112 3.7375 21.5508 5.05025C22.8903 6.36301 23.6429 8.14348 23.6429 10C23.6429 11.8565 22.8903 13.637 21.5508 14.9497C20.2112 16.2625 18.3944 17 16.5 17C14.6056 17 12.7888 16.2625 11.4492 14.9497C10.1097 13.637 9.35714 11.8565 9.35714 10ZM4.89286 29.3758C4.89286 29.7914 5.23326 30.125 5.65737 30.125H27.3426C27.7667 30.125 28.1071 29.7914 28.1071 29.3758C28.1071 24.4758 24.0502 20.5 19.0502 20.5H13.9498C8.94978 20.5 4.89286 24.4758 4.89286 29.3758ZM4 29.3758C4 23.9891 8.45312 19.625 13.9498 19.625H19.0502C24.5469 19.625 29 23.9891 29 29.3758C29 30.2727 28.2578 31 27.3426 31H5.65737C4.74219 31 4 30.2727 4 29.3758Z" fill="#595959" stroke="#595959" stroke-width="0.5"/>
</svg>
